<svg width="12" height="12" viewBox="0 0 12 12" fill="none" xmlns="http://www.w3.org/2000/svg">
<path fill-rule="evenodd" clip-rule="evenodd" d="M6 0C6.36819 0 6.66667 0.298477 6.66667 0.666667V6.05719L7.86193 4.86193C8.12228 4.60158 8.54439 4.60158 8.80474 4.86193C9.06509 5.12228 9.06509 5.54439 8.80474 5.80474L6.4714 8.13807C6.21106 8.39842 5.78895 8.39842 5.5286 8.13807L3.19526 5.80474C2.93491 5.54439 2.93491 5.12228 3.19526 4.86193C3.45561 4.60158 3.87772 4.60158 4.13807 4.86193L5.33333 6.05719V0.666667C5.33333 0.298477 5.63181 0 6 0ZM0.666667 7.33333C1.03486 7.33333 1.33333 7.63181 1.33333 8V9.33333C1.33333 10.0697 1.93028 10.6667 2.66667 10.6667H9.33333C10.0697 10.6667 10.6667 10.0697 10.6667 9.33333V8C10.6667 7.63181 10.9651 7.33333 11.3333 7.33333C11.7015 7.33333 12 7.63181 12 8V9.33333C12 10.8061 10.8061 12 9.33333 12H2.66667C1.19392 12 0 10.8061 0 9.33333V8C0 7.63181 0.298477 7.33333 0.666667 7.33333Z" fill="#141E12"/>
</svg>
