<svg width="14" height="14" viewBox="0 0 14 14" fill="none" xmlns="http://www.w3.org/2000/svg">
<path fill-rule="evenodd" clip-rule="evenodd" d="M6.99966 1.39993C3.90702 1.39993 1.39993 3.90702 1.39993 6.99966C1.39993 10.0923 3.90701 12.5994 6.99966 12.5994C10.0923 12.5994 12.5994 10.0923 12.5994 6.99966C12.5994 3.90701 10.0923 1.39993 6.99966 1.39993ZM0 6.99966C0 3.13386 3.13386 0 6.99966 0C10.8655 0 13.9993 3.13386 13.9993 6.99966C13.9993 10.8655 10.8655 13.9993 6.99966 13.9993C3.13386 13.9993 0 10.8655 0 6.99966ZM7.69962 3.49983V6.70972L9.73947 8.74957L8.74957 9.73947L6.29969 7.28959V3.49983H7.69962Z" fill="#141E12"/>
</svg>
