<svg width="14" height="3" viewBox="0 0 14 3" fill="none" xmlns="http://www.w3.org/2000/svg">
<path fill-rule="evenodd" clip-rule="evenodd" d="M5.59993 1.39998C5.59993 0.626783 6.22671 0 6.99991 0C7.77311 0 8.3999 0.626783 8.3999 1.39998C8.3999 2.17318 7.77311 2.79997 6.99991 2.79997C6.22671 2.79997 5.59993 2.17318 5.59993 1.39998Z" fill="#141E12"/>
<path fill-rule="evenodd" clip-rule="evenodd" d="M11.1999 1.39998C11.1999 0.626783 11.8266 0 12.5998 0C13.373 0 13.9998 0.626783 13.9998 1.39998C13.9998 2.17318 13.373 2.79997 12.5998 2.79997C11.8266 2.79997 11.1999 2.17318 11.1999 1.39998Z" fill="#141E12"/>
<path fill-rule="evenodd" clip-rule="evenodd" d="M0 1.39998C0 0.626774 0.626806 0 1.39998 0C2.17316 0 2.79997 0.626774 2.79997 1.39998C2.79997 2.17319 2.17316 2.79997 1.39998 2.79997C0.626806 2.79997 0 2.17319 0 1.39998Z" fill="#141E12"/>
</svg>
