<svg width="24" height="24" viewBox="0 0 24 24" fill="none" xmlns="http://www.w3.org/2000/svg">
<path d="M20 7.76416C20 7.69721 19.9716 7.63436 19.9238 7.59034L19.8691 7.55225L12.8945 4.06495C12.402 3.81864 11.833 3.78845 11.3213 3.97315L11.1055 4.06495L4.13086 7.55225C4.05089 7.59223 4 7.67474 4 7.76416C4.00017 7.89438 4.10605 7.99952 4.23633 7.99952H19.7637C19.894 7.99952 19.9998 7.89437 20 7.76416ZM5.92676 17.9995C5.25877 17.9995 4.66023 18.3967 4.39551 18.9995H19.6045C19.3577 18.4374 18.8211 18.0545 18.208 18.0054L18.0732 17.9995H5.92676ZM16 15.9995H18V9.99952H16V15.9995ZM10 15.9995H14V9.99952H10V15.9995ZM6 15.9995H8V9.99952H6V15.9995ZM22 7.76416C21.9998 8.91921 21.1238 9.86885 20 9.98682V16.5454C20.717 16.9873 21.2783 17.6731 21.5576 18.5112L21.6191 18.7407C21.8507 19.8885 20.9737 20.9995 19.7637 20.9995H4.23633C2.9458 20.9995 2.03423 19.7356 2.44238 18.5112L2.5459 18.2358C2.84866 17.5227 3.36314 16.9379 4 16.5454V9.98682C2.87617 9.86886 2.00016 8.91921 2 7.76416C2 6.91721 2.47878 6.14294 3.23633 5.76416L10.2109 2.27588L10.4248 2.17725C11.5023 1.71547 12.7335 1.74804 13.7891 2.27588L20.7637 5.76416L20.9023 5.83936C21.5793 6.23961 22 6.97007 22 7.76416Z" fill="#141E12"/>
</svg>
