<svg width="24" height="24" viewBox="0 0 24 24" fill="none" xmlns="http://www.w3.org/2000/svg">
<path d="M20 12C20 7.58172 16.4183 4 12 4C7.58172 4 4 7.58172 4 12C4 16.4183 7.58172 20 12 20C16.4183 20 20 16.4183 20 12ZM22 12C22 17.5229 17.5229 22 12 22C6.47716 22 2 17.5229 2 12C2 6.47716 6.47716 2 12 2C17.5229 2 22 6.47716 22 12Z" fill="black"/>
<path d="M14.2256 8.86719C14.5752 8.4399 15.2054 8.3763 15.6328 8.72559C16.0601 9.07518 16.1237 9.70538 15.7744 10.1328L11.2744 15.6328C11.0955 15.8515 10.832 15.985 10.5498 15.999C10.3028 16.0113 10.0614 15.9314 9.87109 15.7773L9.79297 15.707L7.79297 13.707L7.72461 13.6309C7.40426 13.2381 7.42685 12.6591 7.79297 12.293C8.15908 11.9269 8.73809 11.9043 9.13086 12.2246L9.20703 12.293L10.4248 13.5107L14.2256 8.86719Z" fill="black"/>
</svg>
