<svg width="24" height="24" viewBox="0 0 24 24" fill="none" xmlns="http://www.w3.org/2000/svg">
<path fill-rule="evenodd" clip-rule="evenodd" d="M2 12C2 6.47716 6.47716 2 12 2C17.5229 2 22 6.47716 22 12C22 17.5229 17.5229 22 12 22C6.47716 22 2 17.5229 2 12ZM12 4C7.58172 4 4 7.58172 4 12C4 16.4183 7.58172 20 12 20C16.4183 20 20 16.4183 20 12C20 7.58172 16.4183 4 12 4Z" fill="#141E12"/>
<path fill-rule="evenodd" clip-rule="evenodd" d="M12 15C12.5523 15 13 15.4477 13 16V16.01C13 16.5623 12.5523 17.01 12 17.01C11.4477 17.01 11 16.5623 11 16.01V16C11 15.4477 11.4477 15 12 15Z" fill="#141E12"/>
<path fill-rule="evenodd" clip-rule="evenodd" d="M9.40199 8.49928C9.91918 7.6052 10.8883 7 12 7C13.6569 7 15 8.34315 15 10C15 10.6733 14.8194 11.2219 14.4801 11.663C14.1667 12.0704 13.7667 12.3141 13.519 12.4645C13.2192 12.6466 13.121 12.7083 13.0539 12.7824L13.0508 12.7857C13.0347 12.8026 13 12.8389 13 13C13 13.5523 12.5523 14 12 14C11.4477 14 11 13.5523 11 13C11 12.3526 11.2103 11.839 11.5711 11.4403C11.8491 11.1332 12.2036 10.9211 12.4172 10.7933C12.4402 10.7796 12.4615 10.7668 12.481 10.755C12.7333 10.6018 12.8333 10.5236 12.8949 10.4435C12.9306 10.3971 13 10.2926 13 10C13 9.44771 12.5523 9 12 9C11.6311 9 11.3076 9.1992 11.1332 9.50072C10.8567 9.97878 10.2449 10.1421 9.76688 9.86561C9.28882 9.58907 9.12545 8.97735 9.40199 8.49928Z" fill="#141E12"/>
</svg>
