<svg width="16" height="16" viewBox="0 0 16 16" fill="none" xmlns="http://www.w3.org/2000/svg">
<path d="M13.3335 8.00065C13.3335 5.05513 10.9457 2.66732 8.00016 2.66732C5.05465 2.66732 2.66683 5.05513 2.66683 8.00065C2.66683 10.9462 5.05464 13.334 8.00016 13.334C10.9457 13.334 13.3335 10.9462 13.3335 8.00065ZM7.3335 5.33398C7.3335 4.96579 7.63197 4.66732 8.00016 4.66732C8.36835 4.66732 8.66683 4.96579 8.66683 5.33398V7.72461L10.1382 9.19596L10.1838 9.24675C10.3973 9.50859 10.3823 9.8946 10.1382 10.1387C9.89411 10.3827 9.50811 10.3978 9.24626 10.1842L9.19548 10.1387L7.52881 8.47201C7.40378 8.34698 7.3335 8.17746 7.3335 8.00065V5.33398ZM14.6668 8.00065C14.6668 11.6826 11.6821 14.6673 8.00016 14.6673C4.31827 14.6673 1.3335 11.6826 1.3335 8.00065C1.3335 4.31875 4.31827 1.33398 8.00016 1.33398C11.6821 1.33398 14.6668 4.31876 14.6668 8.00065Z" fill="black"/>
</svg>
