<svg width="24" height="24" viewBox="0 0 24 24" fill="none" xmlns="http://www.w3.org/2000/svg">
<path fill-rule="evenodd" clip-rule="evenodd" d="M4.18934 4.18934C4.77513 3.60355 5.72487 3.60355 6.31066 4.18934L12 9.87868L17.6893 4.18934C18.2751 3.60355 19.2249 3.60355 19.8107 4.18934C20.3964 4.77513 20.3964 5.72487 19.8107 6.31066L14.1213 12L19.8107 17.6893C20.3964 18.2751 20.3964 19.2249 19.8107 19.8107C19.2249 20.3964 18.2751 20.3964 17.6893 19.8107L12 14.1213L6.31066 19.8107C5.72487 20.3964 4.77513 20.3964 4.18934 19.8107C3.60355 19.2249 3.60355 18.2751 4.18934 17.6893L9.87868 12L4.18934 6.31066C3.60355 5.72487 3.60355 4.77513 4.18934 4.18934Z" fill="#141E12"/>
</svg>
