<svg width="24" height="24" viewBox="0 0 24 24" fill="none" xmlns="http://www.w3.org/2000/svg">
<path fill-rule="evenodd" clip-rule="evenodd" d="M2 7C2 4.79087 3.79087 3 6 3H8.39445C9.73185 3 10.9808 3.66839 11.7226 4.78118L12.2383 5.55468C12.4237 5.83282 12.736 6 13.0704 6H18C20.2092 6 22 7.79088 22 10V16C22 18.2092 20.2092 20 18 20H16C15.4477 20 15 19.5523 15 19C15 18.4477 15.4477 18 16 18H18C19.1046 18 20 17.1046 20 16V10C20 8.89542 19.1046 8 18 8H13.0704C12.0674 8 11.1307 7.49874 10.5743 6.66412L10.0586 5.89062C9.68763 5.33422 9.06316 5 8.39445 5H6C4.89543 5 4 5.89543 4 7V16C4 17.1046 4.89542 18 6 18H8C8.55228 18 9 18.4477 9 19C9 19.5523 8.55228 20 8 20H6C3.79088 20 2 18.2092 2 16V7ZM11.2929 12.2929C11.6834 11.9024 12.3166 11.9024 12.7071 12.2929L15.2071 14.7929C15.5976 15.1834 15.5976 15.8166 15.2071 16.2071C14.8166 16.5976 14.1834 16.5976 13.7929 16.2071L13 15.4142V19C13 19.5523 12.5523 20 12 20C11.4477 20 11 19.5523 11 19V15.4142L10.2071 16.2071C9.81658 16.5976 9.18342 16.5976 8.79289 16.2071C8.40237 15.8166 8.40237 15.1834 8.79289 14.7929L11.2929 12.2929Z" fill="#141E12"/>
</svg>
