<svg width="24" height="24" viewBox="0 0 24 24" fill="none" xmlns="http://www.w3.org/2000/svg">
<path d="M12 13.4L13.4 14.8C13.5833 14.9833 13.8167 15.075 14.1 15.075C14.3833 15.075 14.6167 14.9833 14.8 14.8C14.9833 14.6167 15.075 14.3833 15.075 14.1C15.075 13.8167 14.9833 13.5833 14.8 13.4L13.4 12L14.8 10.6C14.9833 10.4167 15.075 10.1833 15.075 9.9C15.075 9.61667 14.9833 9.38334 14.8 9.2C14.6167 9.01667 14.3833 8.925 14.1 8.925C13.8167 8.925 13.5833 9.01667 13.4 9.2L12 10.6L10.6 9.2C10.4167 9.01667 10.1833 8.925 9.9 8.925C9.61667 8.925 9.38333 9.01667 9.2 9.2C9.01667 9.38334 8.925 9.61667 8.925 9.9C8.925 10.1833 9.01667 10.4167 9.2 10.6L10.6 12L9.2 13.4C9.01667 13.5833 8.925 13.8167 8.925 14.1C8.925 14.3833 9.01667 14.6167 9.2 14.8C9.38333 14.9833 9.61667 15.075 9.9 15.075C10.1833 15.075 10.4167 14.9833 10.6 14.8L12 13.4ZM12 21.9C11.8833 21.9 11.775 21.8917 11.675 21.875C11.575 21.8583 11.475 21.8333 11.375 21.8C9.125 21.05 7.33333 19.6625 6 17.6375C4.66667 15.6125 4 13.4333 4 11.1V6.375C4 5.95833 4.12083 5.58333 4.3625 5.25C4.60417 4.91667 4.91667 4.675 5.3 4.525L11.3 2.275C11.5333 2.19167 11.7667 2.15 12 2.15C12.2333 2.15 12.4667 2.19167 12.7 2.275L18.7 4.525C19.0833 4.675 19.3958 4.91667 19.6375 5.25C19.8792 5.58333 20 5.95833 20 6.375V11.1C20 13.4333 19.3333 15.6125 18 17.6375C16.6667 19.6625 14.875 21.05 12.625 21.8C12.525 21.8333 12.425 21.8583 12.325 21.875C12.225 21.8917 12.1167 21.9 12 21.9ZM12 19.9C13.7333 19.35 15.1667 18.25 16.3 16.6C17.4333 14.95 18 13.1167 18 11.1V6.375L12 4.125L6 6.375V11.1C6 13.1167 6.56667 14.95 7.7 16.6C8.83333 18.25 10.2667 19.35 12 19.9Z" fill="#141E12"/>
</svg>
