<svg width="24" height="24" viewBox="0 0 24 24" fill="none" xmlns="http://www.w3.org/2000/svg">
<path d="M12 17C12.2833 17 12.5208 16.9042 12.7125 16.7125C12.9042 16.5208 13 16.2833 13 16V12C13 11.7167 12.9042 11.4792 12.7125 11.2875C12.5208 11.0958 12.2833 11 12 11C11.7167 11 11.4792 11.0958 11.2875 11.2875C11.0958 11.4792 11 11.7167 11 12V16C11 16.2833 11.0958 16.5208 11.2875 16.7125C11.4792 16.9042 11.7167 17 12 17ZM12 9C12.2833 9 12.5208 8.90417 12.7125 8.7125C12.9042 8.52083 13 8.28333 13 8C13 7.71667 12.9042 7.47917 12.7125 7.2875C12.5208 7.09583 12.2833 7 12 7C11.7167 7 11.4792 7.09583 11.2875 7.2875C11.0958 7.47917 11 7.71667 11 8C11 8.28333 11.0958 8.52083 11.2875 8.7125C11.4792 8.90417 11.7167 9 12 9ZM12 21.9C11.8833 21.9 11.775 21.8917 11.675 21.875C11.575 21.8583 11.475 21.8333 11.375 21.8C9.125 21.05 7.33333 19.6625 6 17.6375C4.66667 15.6125 4 13.4333 4 11.1V6.375C4 5.95833 4.12083 5.58333 4.3625 5.25C4.60417 4.91667 4.91667 4.675 5.3 4.525L11.3 2.275C11.5333 2.19167 11.7667 2.15 12 2.15C12.2333 2.15 12.4667 2.19167 12.7 2.275L18.7 4.525C19.0833 4.675 19.3958 4.91667 19.6375 5.25C19.8792 5.58333 20 5.95833 20 6.375V11.1C20 13.4333 19.3333 15.6125 18 17.6375C16.6667 19.6625 14.875 21.05 12.625 21.8C12.525 21.8333 12.425 21.8583 12.325 21.875C12.225 21.8917 12.1167 21.9 12 21.9ZM12 19.9C13.7333 19.35 15.1667 18.25 16.3 16.6C17.4333 14.95 18 13.1167 18 11.1V6.375L12 4.125L6 6.375V11.1C6 13.1167 6.56667 14.95 7.7 16.6C8.83333 18.25 10.2667 19.35 12 19.9Z" fill="#141E12"/>
</svg>
