<svg width="24" height="24" viewBox="0 0 24 24" fill="none" xmlns="http://www.w3.org/2000/svg">
<path fill-rule="evenodd" clip-rule="evenodd" d="M9.00046 4C7.61975 4 6.50046 5.11928 6.50046 6.5C6.50046 7.88072 7.61975 9 9.00046 9C10.3812 9 11.5005 7.88071 11.5005 6.5C11.5005 5.11929 10.3812 4 9.00046 4ZM4.50046 6.5C4.50046 4.01472 6.51518 2 9.00046 2C11.4858 2 13.5005 4.01471 13.5005 6.5C13.5005 8.98529 11.4858 11 9.00046 11C6.51518 11 4.50046 8.98528 4.50046 6.5ZM14.0005 3C14.0005 2.44772 14.4482 2 15.0005 2C17.4858 2 19.5005 4.01471 19.5005 6.5C19.5005 8.98529 17.4858 11 15.0005 11C14.4482 11 14.0005 10.5523 14.0005 10C14.0005 9.44772 14.4482 9 15.0005 9C16.3812 9 17.5005 7.88071 17.5005 6.5C17.5005 5.11929 16.3812 4 15.0005 4C14.4482 4 14.0005 3.55228 14.0005 3ZM9.00046 14C6.09298 14 3.66519 15.5126 2.59775 17.5741L1.70973 17.1143L2.59775 17.5741C2.42563 17.9065 2.48005 18.193 2.70729 18.458C2.96422 18.7577 3.44188 19 4.00046 19H14.0005C14.559 19 15.0367 18.7577 15.2936 18.458C15.5209 18.193 15.5753 17.9065 15.4032 17.5741C14.3357 15.5126 11.9079 14 9.00046 14ZM0.821715 16.6545C2.26701 13.8632 5.42304 12 9.00046 12C12.5779 12 15.7339 13.8632 17.1792 16.6545L17.1792 16.6545C17.7689 17.7934 17.5064 18.9498 16.812 19.7597C16.1474 20.5351 15.0988 21 14.0005 21H4.00046C2.90218 21 1.85357 20.5351 1.18889 19.7597C0.494516 18.9498 0.232002 17.7934 0.821715 16.6545ZM17.0579 13.1749C17.2423 12.6543 17.8138 12.3818 18.3344 12.5662C20.6456 13.3848 22.5215 15.0451 23.4247 17.1766C23.8604 18.2049 23.593 19.216 22.9726 19.9208C22.3754 20.5993 21.4598 21 20.5005 21C19.9482 21 19.5005 20.5523 19.5005 20C19.5005 19.4477 19.9482 19 20.5005 19C20.9219 19 21.2774 18.8197 21.4714 18.5993C21.6421 18.4054 21.6861 18.1998 21.5832 17.9569L21.5831 17.9568C20.9235 16.3999 19.5112 15.1048 17.6666 14.4514C17.146 14.267 16.8735 13.6955 17.0579 13.1749Z" fill="#141E12"/>
</svg>
