<svg width="24" height="24" viewBox="0 0 24 24" fill="none" xmlns="http://www.w3.org/2000/svg">
<path fill-rule="evenodd" clip-rule="evenodd" d="M6 6C4.89543 6 4 6.89543 4 8V16C4 17.1046 4.89542 18 6 18H18C19.1046 18 20 17.1046 20 16V9C20 8.44772 20.4477 8 21 8C21.5523 8 22 8.44772 22 9V16C22 18.2092 20.2092 20 18 20H6C3.79088 20 2 18.2092 2 16V8C2 5.79087 3.79087 4 6 4H8C8.55228 4 9 4.44772 9 5C9 5.55228 8.55228 6 8 6H6Z" fill="#141E12"/>
<path fill-rule="evenodd" clip-rule="evenodd" d="M11 10C11 6.68629 13.6863 4 17 4H21C21.5523 4 22 4.44772 22 5C22 5.55228 21.5523 6 21 6H17C14.7909 6 13 7.79087 13 10V12.5858L15.0429 10.5429C15.4334 10.1524 16.0666 10.1524 16.4571 10.5429C16.8476 10.9334 16.8476 11.5666 16.4571 11.9571L12.7071 15.7071C12.3166 16.0976 11.6834 16.0976 11.2929 15.7071L7.54289 11.9571C7.15237 11.5666 7.15237 10.9334 7.54289 10.5429C7.93342 10.1524 8.56658 10.1524 8.95711 10.5429L11 12.5858V10Z" fill="#141E12"/>
</svg>
