<svg width="24" height="24" viewBox="0 0 24 24" fill="none" xmlns="http://www.w3.org/2000/svg">
<path fill-rule="evenodd" clip-rule="evenodd" d="M4.268 6.01544C4.98017 4.76915 6.30554 4 7.74097 4H16.259C17.6945 4 19.0198 4.76916 19.732 6.01539L22.4729 10.8121C22.8184 11.4166 23 12.1006 23 12.7967V16C23 18.2092 21.2092 20 19 20H5C2.79088 20 1 18.2092 1 16V12.7967C1 12.1006 1.18167 11.4165 1.52702 10.8122L4.268 6.01544ZM20.2768 11L17.9956 7.00777C17.9956 7.00775 17.9956 7.00779 17.9956 7.00777C17.6394 6.3846 16.9767 6 16.259 6H7.74097C7.02326 6 6.36057 6.38457 6.00448 7.00772M6.00448 7.00772L3.72319 11H7.25C8.35166 11 9.38901 11.5187 10.05 12.4C10.3333 12.7777 10.7779 13 11.25 13H12.75C13.2222 13 13.6667 12.7777 13.95 12.4C14.6109 11.5187 15.6484 11 16.75 11H20.2768M3 13V16C3 17.1046 3.89542 18 5 18H19C20.1046 18 21 17.1046 21 16V13H16.75C16.2778 13 15.8333 13.2223 15.55 13.6C14.8891 14.4813 13.8516 15 12.75 15H11.25C10.1483 15 9.11099 14.4813 8.45001 13.6C8.16671 13.2223 7.72212 13 7.25 13H3Z" fill="#141E12"/>
</svg>
