<svg width="24" height="24" viewBox="0 0 24 24" fill="none" xmlns="http://www.w3.org/2000/svg">
<path d="M13.6823 19.9565C14.1551 19.9121 14.5942 20.2322 14.6885 20.7082C14.789 21.2161 14.4585 21.7091 13.9506 21.8096L13.4736 21.8929C12.9924 21.964 12.5004 22 12.0005 22C11.3338 22 10.6811 21.9345 10.0494 21.8096C9.5416 21.709 9.21104 21.216 9.31151 20.7082C9.41205 20.2003 9.90593 19.8698 10.4138 19.9702C10.9262 20.0716 11.4567 20.125 12.0005 20.125C12.5442 20.125 13.0747 20.0716 13.5871 19.9702L13.6823 19.9565ZM5.24285 16.5141C5.76211 17.2897 6.41193 17.9706 7.15999 18.5264L7.48592 18.7572L7.56374 18.8148C7.92958 19.1178 8.01407 19.6549 7.74411 20.0581C7.47405 20.4615 6.94505 20.5879 6.52552 20.3648L6.44312 20.3154L6.04211 20.0316C5.1222 19.3481 4.32321 18.5108 3.6846 17.5569L5.24285 16.5141ZM17.5569 20.3154C17.1267 20.6033 16.5449 20.4881 16.2568 20.0581C15.9688 19.6279 16.0838 19.0452 16.5141 18.7572L17.5569 20.3154ZM18.7572 16.5141C19.0452 16.0838 19.6279 15.9688 20.0581 16.2568C20.4881 16.5449 20.6033 17.1267 20.3154 17.5569C19.5856 18.647 18.647 19.5856 17.5569 20.3154L16.5141 18.7572C17.4004 18.1637 18.1637 17.4004 18.7572 16.5141ZM3.94278 16.2568C4.37302 15.9688 4.95482 16.0838 5.24285 16.5141L3.6846 17.5569C3.39678 17.1267 3.51262 16.5448 3.94278 16.2568ZM2 12.0005C2 11.3338 2.06548 10.6811 2.19043 10.0494C2.29095 9.54163 2.78399 9.21114 3.29183 9.31151C3.79976 9.412 4.13024 9.90589 4.02976 10.4138C3.92843 10.9261 3.87503 11.4568 3.87503 12.0005C3.87504 12.4081 3.90521 12.8082 3.96292 13.1989L4.02976 13.5871L4.04349 13.6823C4.0879 14.1552 3.76787 14.5943 3.29183 14.6885C2.81567 14.7826 2.35214 14.4984 2.21332 14.0439L2.19043 13.9506L2.10803 13.4736C2.03692 12.9924 2.00001 12.5005 2 12.0005ZM20.125 12.0005C20.125 11.4567 20.0716 10.9262 19.9702 10.4138L21.8096 10.0494C21.9345 10.6811 22 11.3338 22 12.0005C22 12.667 21.9345 13.3191 21.8096 13.9506L21.7867 14.0439C21.6478 14.4984 21.1843 14.7827 20.7082 14.6885C20.2004 14.5879 19.8699 14.0949 19.9702 13.5871L20.038 13.1989C20.0957 12.8083 20.125 12.4081 20.125 12.0005ZM20.7082 9.31151C21.216 9.21104 21.709 9.5416 21.8096 10.0494L19.9702 10.4138C19.8698 9.90593 20.2003 9.41205 20.7082 9.31151ZM6.52552 3.63607C6.94511 3.41279 7.47401 3.53934 7.74411 3.94278C8.03184 4.373 7.91606 4.95488 7.48592 5.24285L7.15999 5.47356C6.41194 6.02934 5.76212 6.71034 5.24285 7.48592L5.18608 7.56374C4.88327 7.92972 4.34608 8.01384 3.94278 7.74411C3.51255 7.45607 3.3966 6.87337 3.6846 6.44312L3.96841 6.04211C4.65188 5.12214 5.48919 4.32324 6.44312 3.6846L6.52552 3.63607ZM16.2568 3.94278C16.5448 3.51262 17.1267 3.39678 17.5569 3.6846C18.5108 4.32321 19.3481 5.1222 20.0316 6.04211L20.3154 6.44312L20.3648 6.52552C20.5879 6.94505 20.4615 7.47405 20.0581 7.74411C19.6549 8.01407 19.1178 7.92958 18.8148 7.56374L18.7572 7.48592L18.5264 7.15999C17.9706 6.41193 17.2897 5.76211 16.5141 5.24285C16.0838 4.95482 15.9688 4.37302 16.2568 3.94278ZM12.0005 2C12.5005 2.00001 12.9924 2.03692 13.4736 2.10803L13.9506 2.19043L14.0439 2.21332C14.4984 2.35214 14.7826 2.81567 14.6885 3.29183C14.5943 3.76787 14.1552 4.0879 13.6823 4.04349L13.5871 4.02976L13.1989 3.96292C12.8082 3.90521 12.4081 3.87504 12.0005 3.87503C11.4568 3.87503 10.9261 3.92843 10.4138 4.02976C9.90589 4.13024 9.412 3.79976 9.31151 3.29183C9.21114 2.78399 9.54163 2.29095 10.0494 2.19043C10.6811 2.06548 11.3338 2 12.0005 2Z" fill="#141E12"/>
</svg>
