<svg width="24" height="24" viewBox="0 0 24 24" fill="none" xmlns="http://www.w3.org/2000/svg">
<path fill-rule="evenodd" clip-rule="evenodd" d="M19.0429 4.95706C18.1908 4.10496 16.8092 4.10496 15.9571 4.95706L14.9142 5.99997L18 9.08578L19.0429 8.04287C19.895 7.19076 19.895 5.80918 19.0429 4.95706ZM16.5858 10.5L13.5 7.41419L4 16.9142L4 20L7.08584 19.9999L16.5858 10.5ZM14.5429 3.54286C16.176 1.90969 18.824 1.9097 20.4571 3.54287C22.0902 5.17604 22.0902 7.8239 20.4571 9.45707L8.5 21.4142C8.12502 21.7891 7.61631 22 7.08579 22H3C2.44772 22 2 21.5523 2 21V16.9142C2 16.3838 2.21068 15.875 2.58584 15.4999L12.7929 5.29286L14.5429 3.54286C14.5429 3.54286 14.5429 3.54287 14.5429 3.54286Z" fill="#141E12"/>
</svg>
