<svg width="24" height="24" viewBox="0 0 24 24" fill="none" xmlns="http://www.w3.org/2000/svg">
<path d="M12 2C9.51472 2 7.5 4.01472 7.5 6.5C7.5 8.98528 9.51472 11 12 11C14.4853 11 16.5 8.98528 16.5 6.5C16.5 4.01472 14.4853 2 12 2Z" fill="#141E12"/>
<path d="M12.0001 12C8.64237 12 5.96263 13.7661 4.55269 16.3886C3.92347 17.5589 4.16063 18.7737 4.85818 19.6414C4.94234 19.7461 5.03305 19.8459 5.12964 19.9403C5.80579 20.6011 6.77021 21 7.79536 21H15C13.3518 21 12.014 19.6708 12.0001 18.0259V17.9741C12.014 16.3292 13.3518 15 15 15C15 14.1762 15.3321 13.4299 15.8696 12.8878C14.7979 12.3519 13.5769 12.0375 12.2446 12.0031C12.1635 12.0011 12.082 12 12.0001 12Z" fill="#141E12"/>
<path d="M18 14C18.5523 14 19 14.4477 19 15V17H21C21.5523 17 22 17.4477 22 18C22 18.5523 21.5523 19 21 19H19V21C19 21.5523 18.5523 22 18 22C17.4477 22 17 21.5523 17 21V19H15C14.4477 19 14 18.5523 14 18C14 17.4477 14.4477 17 15 17H17V15C17 14.4477 17.4477 14 18 14Z" fill="#141E12"/>
</svg>
