<svg width="24" height="24" viewBox="0 0 24 24" fill="none" xmlns="http://www.w3.org/2000/svg">
<path d="M12.9091 2.90909C12.9091 2.40702 12.5021 2 12 2C11.4979 2 11.0909 2.40702 11.0909 2.90909V3.81818C11.0909 4.32025 11.4979 4.72727 12 4.72727C12.5021 4.72727 12.9091 4.32025 12.9091 3.81818V2.90909Z" fill="#141E12"/>
<path d="M12.9091 20.1818C12.9091 19.6797 12.5021 19.2727 12 19.2727C11.4979 19.2727 11.0909 19.6797 11.0909 20.1818V21.0909C11.0909 21.593 11.4979 22 12 22C12.5021 22 12.9091 21.593 12.9091 21.0909V20.1818Z" fill="#141E12"/>
<path d="M19.07 4.92995C19.425 5.28497 19.425 5.86058 19.07 6.2156L18.4245 6.86105C18.0695 7.21607 17.4939 7.21607 17.1388 6.86105C16.7838 6.50604 16.7838 5.93043 17.1388 5.57541L17.7843 4.92995C18.1394 4.57493 18.7149 4.57493 19.07 4.92995Z" fill="#141E12"/>
<path d="M6.86115 18.4246C7.21617 18.0696 7.21617 17.494 6.86115 17.139C6.50613 16.784 5.93052 16.784 5.5755 17.139L4.93005 17.7845C4.57503 18.1395 4.57503 18.7151 4.93005 19.0701C5.28506 19.4251 5.86067 19.4251 6.21569 19.0701L6.86115 18.4246Z" fill="#141E12"/>
<path d="M19.2727 12C19.2727 11.4979 19.6797 11.0909 20.1818 11.0909H21.0909C21.593 11.0909 22 11.4979 22 12C22 12.5021 21.593 12.9091 21.0909 12.9091H20.1818C19.6797 12.9091 19.2727 12.5021 19.2727 12Z" fill="#141E12"/>
<path d="M2.90909 11.0909C2.40702 11.0909 2 11.4979 2 12C2 12.5021 2.40702 12.9091 2.90909 12.9091H3.81818C4.32025 12.9091 4.72727 12.5021 4.72727 12C4.72727 11.4979 4.32025 11.0909 3.81818 11.0909H2.90909Z" fill="#141E12"/>
<path d="M17.1388 17.139C17.4939 16.784 18.0695 16.784 18.4245 17.139L19.07 17.7845C19.425 18.1395 19.425 18.7151 19.07 19.0701C18.7149 19.4251 18.1394 19.4251 17.7843 19.0701L17.1388 18.4246C16.7838 18.0696 16.7838 17.494 17.1388 17.139Z" fill="#141E12"/>
<path d="M6.21569 4.92995C5.86067 4.57493 5.28506 4.57493 4.93005 4.92995C4.57503 5.28497 4.57503 5.86058 4.93005 6.2156L5.5755 6.86105C5.93052 7.21607 6.50613 7.21607 6.86115 6.86105C7.21617 6.50604 7.21617 5.93043 6.86115 5.57541L6.21569 4.92995Z" fill="#141E12"/>
<path d="M8.14305 8.14305C10.2732 6.01292 13.7268 6.01292 15.8569 8.14305C17.9871 10.2732 17.9871 13.7268 15.8569 15.8569C13.7268 17.9871 10.2732 17.9871 8.14305 15.8569C6.01292 13.7268 6.01292 10.2732 8.14305 8.14305Z" fill="#141E12"/>
</svg>
