<svg width="24" height="24" viewBox="0 0 24 24" fill="none" xmlns="http://www.w3.org/2000/svg">
<path fill-rule="evenodd" clip-rule="evenodd" d="M4.9312 5.50237C5.48217 5.46437 5.95963 5.88022 5.99763 6.4312L6.80497 18.1376C6.87729 19.1863 7.74907 20 8.80023 20H15.1998C16.2509 20 17.1227 19.1863 17.1951 18.1376L18.0024 6.4312C18.0404 5.88023 18.5178 5.46437 19.0688 5.50237C19.6198 5.54037 20.0356 6.01782 19.9976 6.5688L19.1903 18.2752C19.0457 20.3725 17.3021 22 15.1998 22H8.80023C6.69789 22 4.95435 20.3725 4.80971 18.2752L4.00237 6.5688C3.96437 6.01783 4.38022 5.54037 4.9312 5.50237Z" fill="#141E12"/>
<path fill-rule="evenodd" clip-rule="evenodd" d="M10 10C10.5523 10 11 10.4477 11 11V16C11 16.5523 10.5523 17 10 17C9.44772 17 9 16.5523 9 16V11C9 10.4477 9.44772 10 10 10Z" fill="#141E12"/>
<path fill-rule="evenodd" clip-rule="evenodd" d="M14 10C14.5523 10 15 10.4477 15 11V16C15 16.5523 14.5523 17 14 17C13.4477 17 13 16.5523 13 16V11C13 10.4477 13.4477 10 14 10Z" fill="#141E12"/>
<path fill-rule="evenodd" clip-rule="evenodd" d="M2.5 6C2.5 5.44772 2.94772 5 3.5 5H20.5C21.0523 5 21.5 5.44772 21.5 6C21.5 6.55228 21.0523 7 20.5 7H3.5C2.94772 7 2.5 6.55228 2.5 6Z" fill="#141E12"/>
<path fill-rule="evenodd" clip-rule="evenodd" d="M12 3.5C10.5375 3.5 9.31754 4.5475 9.05322 5.93354C8.94976 6.47604 8.4261 6.83196 7.88359 6.72851C7.34109 6.62505 6.98517 6.10139 7.08862 5.55889C7.52942 3.2474 9.55952 1.5 12 1.5C14.4405 1.5 16.4705 3.24741 16.9114 5.55886C17.0149 6.10137 16.659 6.62504 16.1164 6.7285C15.5739 6.83197 15.0503 6.47606 14.9468 5.93356C14.6825 4.54749 13.4625 3.5 12 3.5Z" fill="#141E12"/>
</svg>
