<svg width="24" height="24" viewBox="0 0 24 24" fill="none" xmlns="http://www.w3.org/2000/svg">
<path fill-rule="evenodd" clip-rule="evenodd" d="M7.22919 5H3.5C2.94772 5 2.5 5.44772 2.5 6C2.5 6.55228 2.94772 7 3.5 7H4.03211L4.80971 18.2752C4.95435 20.3726 6.6979 22 8.80023 22H15.1998C17.3021 22 19.0456 20.3726 19.1903 18.2752L19.9679 7H20.5C21.0523 7 21.5 6.55228 21.5 6C21.5 5.44772 21.0523 5 20.5 5H16.7708C16.1335 2.97145 14.2395 1.5 12 1.5C9.76053 1.5 7.86655 2.97145 7.22919 5ZM9.40105 5H14.599C14.0801 4.10329 13.1099 3.5 12 3.5C10.8901 3.5 9.9199 4.10329 9.40105 5ZM10 10C10.5523 10 11 10.4477 11 11V16C11 16.5523 10.5523 17 10 17C9.44772 17 9 16.5523 9 16V11C9 10.4477 9.44772 10 10 10ZM14 10C14.5523 10 15 10.4477 15 11V16C15 16.5523 14.5523 17 14 17C13.4477 17 13 16.5523 13 16V11C13 10.4477 13.4477 10 14 10Z" fill="#141E12"/>
</svg>
