<svg width="9" height="9" viewBox="0 0 9 9" fill="none" xmlns="http://www.w3.org/2000/svg">
<path fill-rule="evenodd" clip-rule="evenodd" d="M0.239641 0.239641C0.559163 -0.0798804 1.0772 -0.0798804 1.39672 0.239641L4.5 3.34292L7.60326 0.239641C7.92278 -0.0798804 8.44086 -0.0798804 8.76038 0.239641C9.07985 0.559163 9.07985 1.0772 8.76038 1.39672L5.65707 4.5L8.76038 7.60326C9.07985 7.92278 9.07985 8.44086 8.76038 8.76038C8.44086 9.07985 7.92278 9.07985 7.60326 8.76038L4.5 5.65707L1.39672 8.76038C1.0772 9.07985 0.559163 9.07985 0.239641 8.76038C-0.0798804 8.44086 -0.0798804 7.92278 0.239641 7.60326L3.34292 4.5L0.239641 1.39672C-0.0798804 1.0772 -0.0798804 0.559163 0.239641 0.239641Z" fill="#6B716A"/>
</svg>
